<?xml version="1.0" encoding="UTF-8" standalone="no"?><!-- Generator: Gravit.io --><svg xmlns="http://www.w3.org/2000/svg" xmlns:xlink="http://www.w3.org/1999/xlink" style="isolation:isolate" viewBox="401 300 1279.221 1111.292" width="1279.221pt" height="1111.292pt"><defs><clipPath id="_clipPath_nzRtbaZcx0iOOmVWXaaTRdTHgUIlx7Zk"><rect x="401" y="300" width="1279.221" height="1111.292"/></clipPath></defs><g clip-path="url(#_clipPath_nzRtbaZcx0iOOmVWXaaTRdTHgUIlx7Zk)"><g><path d=" M 1080.304 300.31 C 1042.604 303.11 1007.704 308.81 970.304 318.51 C 962.904 320.41 955.604 322.21 954.104 322.51 C 952.504 322.71 951.304 323.31 951.304 323.71 C 951.304 325.21 958.804 325.41 963.804 324.11 C 974.904 321.31 992.504 320.31 1007.004 321.61 C 1059.204 326.41 1115.804 348.81 1163.504 383.71 C 1178.404 394.51 1202.204 418.61 1210.604 431.31 C 1221.404 447.61 1226.404 460.21 1228.304 476.21 C 1230.004 490.61 1227.804 501.61 1219.904 517.71 L 1214.804 528.21 L 1214.804 539.71 C 1214.804 546.51 1215.404 553.31 1216.204 556.21 C 1217.804 561.91 1222.704 572.31 1225.104 575.01 C 1226.604 576.71 1226.404 577.01 1223.204 580.11 C 1221.304 582.01 1173.604 625.81 1117.204 677.51 L 1014.504 771.51 L 936.704 704.01 C 893.804 666.91 857.504 635.41 856.004 634.11 L 853.204 631.71 L 857.704 613.51 C 872.004 556.01 896.204 458.01 896.504 456.51 C 896.704 455.21 889.704 450.61 867.804 437.61 C 766.804 377.71 685.904 329.41 670.804 319.81 C 664.204 315.71 658.304 312.21 657.604 312.11 C 656.704 311.91 621.604 343.51 594.104 369.31 L 587.404 375.61 L 640.104 423.91 C 706.904 485.11 717.704 495.01 723.504 500.31 L 728.104 504.61 L 722.104 523.91 C 718.804 534.51 715.304 545.91 714.304 549.21 C 710.604 561.31 702.404 587.31 701.604 589.61 C 700.704 591.91 697.104 592.91 653.304 604.31 C 608.004 616.11 605.804 616.61 603.904 614.91 C 602.904 614.01 571.104 585.01 533.504 550.41 L 465.004 487.71 L 462.404 490.01 C 424.704 524.31 401.404 546.01 401.004 547.11 C 400.704 547.91 415.604 568.01 438.004 596.81 C 476.604 646.51 503.804 681.91 541.204 731.41 C 553.004 747.01 563.204 759.71 564.004 759.71 C 565.304 759.71 571.904 758.61 596.804 754.21 C 601.804 753.31 610.904 751.71 617.104 750.61 C 623.204 749.61 633.404 747.81 639.604 746.71 C 645.704 745.71 656.004 743.91 662.304 742.81 C 668.604 741.71 679.004 739.91 685.304 738.81 C 691.604 737.71 702.004 735.91 708.304 734.81 C 714.604 733.71 725.204 731.81 731.804 730.71 C 738.404 729.51 746.104 728.21 748.804 727.71 L 753.804 726.91 L 766.304 739.11 C 778.704 751.31 861.404 831.71 868.604 838.61 L 872.304 842.31 L 828.604 880.71 C 804.504 901.91 756.304 944.31 721.304 975.11 C 686.404 1005.81 638.004 1048.31 613.904 1069.61 C 524.604 1148.11 491.204 1177.41 468.704 1197.31 C 455.904 1208.51 443.004 1220.41 440.004 1223.71 C 428.104 1236.61 424.404 1251.11 429.704 1265.01 C 432.604 1272.81 436.204 1278.51 443.504 1286.91 C 449.504 1293.81 533.704 1371.11 542.104 1377.41 C 549.104 1382.71 561.404 1388.81 571.304 1391.91 C 577.404 1393.81 581.004 1394.21 590.804 1394.21 C 604.704 1394.21 610.404 1392.81 620.204 1387.01 C 626.504 1383.21 635.204 1374.91 765.804 1248.71 C 788.404 1226.91 814.704 1201.51 824.304 1192.21 C 841.304 1175.81 853.504 1164.11 941.804 1078.71 C 1004.704 1017.81 1028.104 995.51 1028.804 995.61 C 1029.304 995.61 1110.304 1074.31 1170.304 1133.21 C 1182.704 1145.31 1219.804 1181.61 1252.804 1213.71 C 1285.804 1245.91 1331.504 1290.41 1354.304 1312.71 C 1425.004 1381.61 1428.604 1385.11 1435.304 1389.91 C 1448.804 1399.41 1459.404 1404.61 1474.304 1408.71 C 1485.404 1411.81 1508.604 1412.21 1520.104 1409.41 C 1545.604 1403.31 1567.404 1388.91 1583.404 1367.71 C 1588.704 1360.81 1596.604 1344.31 1598.704 1335.71 C 1605.804 1307.71 1597.104 1279.51 1574.604 1257.61 C 1568.104 1251.21 1215.304 944.81 1138.404 878.71 C 1125.204 867.41 1114.504 857.71 1114.504 857.21 C 1114.504 856.61 1142.104 831.01 1175.704 800.21 C 1209.304 769.41 1256.304 726.41 1280.204 704.51 L 1323.504 664.81 L 1331.304 670.31 C 1340.404 676.61 1351.004 681.81 1360.304 684.31 C 1370.104 687.01 1391.604 686.81 1405.204 683.91 C 1417.904 681.21 1425.504 681.11 1435.704 683.71 C 1455.104 688.61 1469.704 700.21 1499.104 734.01 L 1511.104 747.81 L 1501.304 757.31 C 1493.404 765.01 1491.004 768.11 1488.204 774.01 C 1485.004 780.71 1484.804 781.91 1484.804 791.21 C 1484.804 799.71 1485.204 802.21 1487.604 808.21 C 1492.904 821.71 1504.004 833.41 1517.804 839.81 C 1527.304 844.31 1533.604 845.71 1544.404 845.71 C 1555.504 845.71 1563.604 843.51 1571.704 838.31 C 1576.804 835.01 1660.904 758.81 1669.004 750.11 C 1682.204 736.01 1683.904 714.51 1673.304 696.61 C 1668.004 687.61 1657.204 677.71 1648.104 673.31 C 1637.704 668.41 1633.104 667.31 1621.804 667.31 C 1611.504 667.31 1605.404 668.71 1596.904 672.91 L 1593.104 674.81 L 1590.604 672.51 C 1585.604 668.01 1571.004 650.01 1565.104 641.21 C 1561.804 636.21 1554.204 622.51 1548.304 610.71 C 1535.804 585.71 1533.304 581.21 1525.004 569.71 C 1515.004 555.71 1492.704 530.01 1482.204 520.21 C 1470.804 509.71 1431.404 472.81 1422.804 464.71 C 1409.704 452.31 1339.704 386.91 1333.804 381.61 C 1323.704 372.31 1310.704 362.41 1296.904 353.21 C 1254.904 325.31 1210.804 309.41 1154.804 302.11 C 1143.204 300.61 1093.004 299.41 1080.304 300.31 Z  M 1516.404 1281.81 C 1525.404 1284.31 1534.504 1290.71 1539.804 1297.91 C 1545.704 1305.81 1547.704 1312.21 1547.704 1322.71 C 1547.704 1330.41 1547.404 1331.91 1544.004 1338.81 C 1537.704 1352.01 1526.704 1360.11 1510.504 1363.51 C 1500.204 1365.61 1490.104 1364.21 1479.804 1359.21 C 1471.104 1355.01 1467.804 1351.71 1465.204 1344.21 C 1459.104 1326.81 1463.504 1302.61 1475.204 1289.51 C 1480.204 1283.81 1485.704 1281.11 1494.304 1279.91 C 1502.304 1278.81 1507.804 1279.31 1516.404 1281.81 Z " fill="rgb(0,159,217)"/></g></g></svg>