<?xml version="1.0" standalone="no"?><!-- Generator: Gravit.io --><svg xmlns="http://www.w3.org/2000/svg" xmlns:xlink="http://www.w3.org/1999/xlink" style="isolation:isolate" viewBox="0 0 1280 1112" width="1280px" height="1112px"><defs><clipPath id="_clipPath_rrezvYZSJuYttGJAETMingmp0TP6mzSW"><rect width="1280" height="1112"/></clipPath></defs><g clip-path="url(#_clipPath_rrezvYZSJuYttGJAETMingmp0TP6mzSW)"><path d=" M 680 0.6 C 642.3 3.4 607.4 9.1 570 18.8 C 562.6 20.7 555.3 22.5 553.8 22.8 C 552.2 23 551 23.6 551 24 C 551 25.5 558.5 25.7 563.5 24.4 C 574.6 21.6 592.2 20.6 606.7 21.9 C 658.9 26.7 715.5 49.1 763.2 84 C 778.1 94.8 801.9 118.9 810.3 131.6 C 821.1 147.9 826.1 160.5 828 176.5 C 829.7 190.9 827.5 201.9 819.6 218 L 814.5 228.5 L 814.5 240 C 814.5 246.8 815.1 253.6 815.9 256.5 C 817.5 262.2 822.4 272.6 824.8 275.3 C 826.3 277 826.1 277.3 822.9 280.4 C 821 282.3 773.3 326.1 716.9 377.8 L 614.2 471.8 L 536.4 404.3 C 493.5 367.2 457.2 335.7 455.7 334.4 L 452.9 332 L 457.4 313.8 C 471.7 256.3 495.9 158.3 496.2 156.8 C 496.4 155.5 489.4 150.9 467.5 137.9 C 366.5 78 285.6 29.7 270.5 20.1 C 263.9 16 258 12.5 257.3 12.4 C 256.4 12.2 221.3 43.8 193.8 69.6 L 187.1 75.9 L 239.8 124.2 C 306.6 185.4 317.4 195.3 323.2 200.6 L 327.8 204.9 L 321.8 224.2 C 318.5 234.8 315 246.2 314 249.5 C 310.3 261.6 302.1 287.6 301.3 289.9 C 300.4 292.2 296.8 293.2 253 304.6 C 207.7 316.4 205.5 316.9 203.6 315.2 C 202.6 314.3 170.8 285.3 133.2 250.7 L 64.7 188 L 62.1 190.3 C 24.4 224.6 1.1 246.3 0.7 247.4 C 0.4 248.2 15.3 268.3 37.7 297.1 C 76.3 346.8 103.5 382.2 140.9 431.7 C 152.7 447.3 162.9 460 163.7 460 C 165 460 171.6 458.9 196.5 454.5 C 201.5 453.6 210.6 452 216.8 450.9 C 222.9 449.9 233.1 448.1 239.3 447 C 245.4 446 255.7 444.2 262 443.1 C 268.3 442 278.7 440.2 285 439.1 C 291.3 438 301.7 436.2 308 435.1 C 314.3 434 324.9 432.1 331.5 431 C 338.1 429.8 345.8 428.5 348.5 428 L 353.5 427.2 L 366 439.4 C 378.4 451.6 461.1 532 468.3 538.9 L 472 542.6 L 428.3 581 C 404.2 602.2 356 644.6 321 675.4 C 286.1 706.1 237.7 748.6 213.6 769.9 C 124.3 848.4 90.9 877.7 68.4 897.6 C 55.6 908.8 42.7 920.7 39.7 924 C 27.8 936.9 24.1 951.4 29.4 965.3 C 32.3 973.1 35.9 978.8 43.2 987.2 C 49.2 994.1 133.4 1071.4 141.8 1077.7 C 148.8 1083 161.1 1089.1 171 1092.2 C 177.1 1094.1 180.7 1094.5 190.5 1094.5 C 204.4 1094.5 210.1 1093.1 219.9 1087.3 C 226.2 1083.5 234.9 1075.2 365.5 949 C 388.1 927.2 414.4 901.8 424 892.5 C 441 876.1 453.2 864.4 541.5 779 C 604.4 718.1 627.8 695.8 628.5 695.9 C 629 695.9 710 774.6 770 833.5 C 782.4 845.6 819.5 881.9 852.5 914 C 885.5 946.2 931.2 990.7 954 1013 C 1024.7 1081.9 1028.3 1085.4 1035 1090.2 C 1048.5 1099.7 1059.1 1104.9 1074 1109 C 1085.1 1112.1 1108.3 1112.5 1119.8 1109.7 C 1145.3 1103.6 1167.1 1089.2 1183.1 1068 C 1188.4 1061.1 1196.3 1044.6 1198.4 1036 C 1205.5 1008 1196.8 979.8 1174.3 957.9 C 1167.8 951.5 815 645.1 738.1 579 C 724.9 567.7 714.2 558 714.2 557.5 C 714.2 556.9 741.8 531.3 775.4 500.5 C 809 469.7 856 426.7 879.9 404.8 L 923.2 365.1 L 931 370.6 C 940.1 376.9 950.7 382.1 960 384.6 C 969.8 387.3 991.3 387.1 1004.9 384.2 C 1017.6 381.5 1025.2 381.4 1035.4 384 C 1054.8 388.9 1069.4 400.5 1098.8 434.3 L 1110.8 448.1 L 1101 457.6 C 1093.1 465.3 1090.7 468.4 1087.9 474.3 C 1084.7 481 1084.5 482.2 1084.5 491.5 C 1084.5 500 1084.9 502.5 1087.3 508.5 C 1092.6 522 1103.7 533.7 1117.5 540.1 C 1127 544.6 1133.3 546 1144.1 546 C 1155.2 546 1163.3 543.8 1171.4 538.6 C 1176.5 535.3 1260.6 459.1 1268.7 450.4 C 1281.9 436.3 1283.6 414.8 1273 396.9 C 1267.7 387.9 1256.9 378 1247.8 373.6 C 1237.4 368.7 1232.8 367.6 1221.5 367.6 C 1211.2 367.6 1205.1 369 1196.6 373.2 L 1192.8 375.1 L 1190.3 372.8 C 1185.3 368.3 1170.7 350.3 1164.8 341.5 C 1161.5 336.5 1153.9 322.8 1148 311 C 1135.5 286 1133 281.5 1124.7 270 C 1114.7 256 1092.4 230.3 1081.9 220.5 C 1070.5 210 1031.1 173.1 1022.5 165 C 1009.4 152.6 939.4 87.2 933.5 81.9 C 923.4 72.6 910.4 62.7 896.6 53.5 C 854.6 25.6 810.5 9.7 754.5 2.4 C 742.9 0.9 692.7 -0.3 680 0.6 Z  M 1116.1 982.1 C 1125.1 984.6 1134.2 991 1139.5 998.2 C 1145.4 1006.1 1147.4 1012.5 1147.4 1023 C 1147.4 1030.7 1147.1 1032.2 1143.7 1039.1 C 1137.4 1052.3 1126.4 1060.4 1110.2 1063.8 C 1099.9 1065.9 1089.8 1064.5 1079.5 1059.5 C 1070.8 1055.3 1067.5 1052 1064.9 1044.5 C 1058.8 1027.1 1063.2 1002.9 1074.9 989.8 C 1079.9 984.1 1085.4 981.4 1094 980.2 C 1102 979.1 1107.5 979.6 1116.1 982.1 Z " fill="rgb(0,159,217)"/></g></svg>